# xmcd
#
# Track frame offsets: 
#        150
#        6517
#        20635
#        33225
#        44230
#        54552
#        64127
#        74974
#        84843
#
# Disc length: 1365 seconds
#
# Revision: 1
# Processed by: cddbd v1.5.2PL0 Copyright (c) Steve Scherf et al.
# Submitted via: ExactAudioCopy v1.3
#
DISCID=82055309
DTITLE=Eric Clapton - Mister Slowhand - The Master Plays The  Blues
DYEAR=2006
DGENRE=Blues
TTITLE0=Choker
TTITLE1=Draggin' My Tail
TTITLE2=Freight Loader
TTITLE3=Snake Drive
TTITLE4=West Coast Idea
TTITLE5=Tribute To Elmore
TTITLE6=Miles Road
TTITLE7=I'm Your Witch Doctor
TTITLE8=Telephone Blues
EXTD=
EXTT0=
EXTT1=
EXTT2=
EXTT3=
EXTT4=
EXTT5=
EXTT6=
EXTT7=
EXTT8=
PLAYORDER=
